<?xml version="1.0" standalone="no"?>
<!DOCTYPE svg PUBLIC "-//W3C//DTD SVG 20010904//EN"
 "http://www.w3.org/TR/2001/REC-SVG-20010904/DTD/svg10.dtd">
<svg version="1.0" xmlns="http://www.w3.org/2000/svg"
 width="260.000000pt" height="260.000000pt" viewBox="0 0 260.000000 260.000000"
 preserveAspectRatio="xMidYMid meet">
<metadata>
Created by potrace 1.11, written by Peter Selinger 2001-2013
</metadata>
<g transform="translate(0.000000,260.000000) scale(0.100000,-0.100000)"
fill="#000000" stroke="none">
<path d="M1848 2575 c-32 -13 -58 -21 -58 -18 0 3 -6 1 -12 -4 -7 -6 -40 -20
-73 -31 -34 -11 -72 -25 -85 -31 -14 -6 -88 -33 -165 -62 -77 -28 -201 -73
-275 -101 -74 -28 -141 -51 -147 -51 -7 0 -13 -4 -13 -9 0 -4 -3 -7 -7 -7 -5
1 -11 0 -15 -1 -5 -1 -11 -3 -15 -4 -5 -1 -42 -15 -83 -31 -41 -16 -77 -30
-80 -30 -18 -3 -87 -29 -97 -38 -7 -5 -13 -6 -13 -2 0 4 -6 3 -12 -3 -7 -6
-15 -10 -18 -11 -6 0 -19 -4 -105 -37 -38 -14 -74 -27 -80 -28 -11 -3 -40 -14
-70 -26 -50 -20 -91 -35 -97 -35 -3 0 -10 -3 -14 -7 -4 -5 -13 -8 -20 -8 -7 0
-25 -5 -41 -12 -15 -6 -30 -12 -33 -13 -3 -1 -16 -6 -30 -12 -14 -5 -61 -23
-105 -38 -44 -16 -81 -29 -83 -31 -2 -1 4 -19 12 -39 9 -20 13 -41 10 -46 -3
-5 -1 -9 4 -9 5 0 9 -6 9 -12 1 -7 13 -49 27 -93 14 -44 26 -85 26 -92 0 -7 5
-13 12 -13 6 0 9 -2 6 -5 -5 -6 36 -147 48 -167 3 -5 13 -3 22 4 13 11 14 11
8 -1 -7 -10 -3 -10 15 2 23 14 83 32 85 25 0 -2 9 4 19 12 11 8 16 10 12 3 -4
-6 -2 -13 5 -15 18 -6 18 -55 0 -54 -8 0 -17 -6 -19 -14 -3 -11 -2 -12 5 -2
17 25 46 1 41 -35 0 -3 6 -10 14 -15 10 -5 14 -18 10 -39 -3 -21 -1 -29 6 -24
7 3 11 -2 11 -14 0 -12 4 -21 9 -21 6 0 8 -9 6 -20 -2 -11 0 -20 6 -20 5 0 8
-3 7 -7 -2 -13 14 -67 25 -81 5 -7 7 -15 4 -19 -4 -3 -1 -13 5 -21 7 -8 14
-26 16 -40 2 -15 7 -31 12 -37 5 -6 11 -22 13 -35 3 -14 12 -45 21 -70 9 -25
19 -54 21 -64 3 -11 17 -56 32 -100 15 -45 28 -84 29 -88 1 -5 2 -9 4 -10 1
-2 3 -10 5 -18 2 -8 10 -34 19 -58 8 -23 16 -46 17 -50 1 -4 5 -17 10 -30 5
-13 9 -30 9 -37 0 -12 5 -12 34 0 18 8 36 11 40 8 3 -4 6 -2 6 4 0 11 54 27
78 24 6 -1 12 3 12 9 0 5 4 10 8 10 8 0 12 -14 13 -53 0 -9 4 -15 10 -12 8 5
10 -2 9 -30 0 -3 7 -19 15 -35 9 -17 13 -30 9 -30 -4 0 -1 -6 5 -13 6 -8 12
-24 14 -38 2 -13 8 -23 13 -21 40 11 81 26 89 32 6 5 13 9 17 9 39 6 68 15 68
21 0 3 6 7 13 7 6 0 22 3 34 7 18 6 22 2 29 -26 4 -18 7 -36 6 -40 -1 -5 2 -8
8 -8 6 0 9 -3 8 -7 -3 -9 72 -243 77 -243 1 0 18 6 36 14 67 26 74 29 84 32
34 11 235 84 275 101 8 3 17 7 20 7 5 1 89 31 120 43 8 4 17 7 20 8 3 1 12 5
20 8 33 15 217 80 238 84 12 3 22 9 22 14 0 5 3 8 8 7 7 -2 80 21 97 31 6 3
19 7 29 8 11 2 25 8 33 14 7 6 13 8 13 4 0 -4 6 -3 13 2 6 6 37 18 67 28 30
10 61 23 69 29 8 6 15 10 15 8 1 -4 13 0 81 25 28 10 53 17 58 15 10 -3 11 -4
-30 120 -20 62 -38 115 -38 118 -1 3 -4 12 -8 20 -10 25 -67 204 -72 224 -2
11 -15 49 -27 85 -12 36 -23 68 -23 71 -1 3 -12 39 -25 80 -13 41 -25 77 -25
80 -1 3 -4 12 -8 20 -7 19 -28 87 -31 103 -2 7 -6 19 -9 27 -3 8 -20 58 -37
110 -17 52 -34 102 -37 110 -3 8 -5 20 -4 27 1 6 -3 14 -8 18 -6 3 -8 12 -4
20 3 8 0 15 -6 15 -6 0 -11 10 -11 23 0 13 -3 27 -7 31 -4 3 -8 13 -10 21 -5
24 -9 39 -17 57 -4 9 -9 22 -10 30 -2 7 -6 21 -10 30 -4 9 -9 22 -10 30 -2 7
-6 21 -9 31 -8 21 -16 45 -17 52 0 3 -8 24 -16 47 -9 24 -17 48 -18 53 -2 6
-5 17 -8 25 -23 64 -91 278 -91 288 0 6 -5 12 -10 12 -6 0 -8 3 -4 6 3 3 -3
28 -13 54 -10 26 -17 50 -14 52 2 3 -1 10 -8 16 -9 7 -29 4 -70 -13z"/>
<path d="M296 1442 c-4 -7 -2 -12 6 -12 9 0 9 -3 -2 -10 -12 -7 -11 -9 6 -8
11 1 21 8 21 15 0 6 -4 10 -8 7 -4 -2 -9 1 -11 8 -3 9 -6 9 -12 0z"/>
<path d="M256 1422 c-3 -5 1 -9 9 -9 8 0 12 4 9 9 -3 4 -7 8 -9 8 -2 0 -6 -4
-9 -8z"/>
<path d="M314 1355 c-4 -8 -11 -12 -18 -8 -6 3 -7 2 -3 -3 5 -5 13 -10 18 -10
5 -1 14 -2 20 -3 5 0 8 -5 5 -9 -2 -4 3 -13 13 -19 14 -9 18 -8 18 3 0 7 -4
11 -9 8 -4 -3 -9 0 -9 5 -1 6 -3 16 -4 21 -1 6 -3 15 -4 20 -2 15 -21 12 -27
-5z m21 -5 c3 -5 1 -10 -4 -10 -6 0 -11 5 -11 10 0 6 2 10 4 10 3 0 8 -4 11
-10z"/>
<path d="M297 1295 c-4 -8 -3 -16 1 -19 4 -3 9 4 9 15 2 23 -3 25 -10 4z"/>
<path d="M330 1296 c0 -2 8 -10 18 -17 15 -13 16 -12 3 4 -13 16 -21 21 -21
13z"/>
<path d="M373 1209 c-2 -23 3 -25 10 -4 4 8 3 16 -1 19 -4 3 -9 -4 -9 -15z"/>
</g>
</svg>
